<?xml version="1.0" standalone="no"?>
<!DOCTYPE svg PUBLIC "-//W3C//DTD SVG 20010904//EN"
 "http://www.w3.org/TR/2001/REC-SVG-20010904/DTD/svg10.dtd">
<svg version="1.0" xmlns="http://www.w3.org/2000/svg"
 width="400.000000pt" height="400.000000pt" viewBox="0 0 400.000000 400.000000"
 preserveAspectRatio="xMidYMid meet">
<metadata>
Created by potrace 1.11, written by Peter Selinger 2001-2013
</metadata>
<g transform="translate(0.000000,400.000000) scale(0.100000,-0.100000)"
fill="#000000" stroke="none">
<path d="M2250 2689 c-19 -5 -43 -11 -52 -14 -10 -2 -48 -18 -85 -36 -129 -61
-239 -198 -277 -345 -17 -65 -26 -214 -13 -214 5 0 6 -4 3 -9 -3 -5 1 -33 10
-62 66 -237 279 -402 517 -401 82 0 140 9 201 32 l49 19 19 -22 c63 -74 90
-96 107 -87 36 19 151 123 151 137 0 5 -20 31 -45 60 -43 49 -55 73 -37 73 12
0 78 135 92 190 17 64 20 190 5 258 -14 68 -53 157 -92 209 -29 40 -113 122
-125 123 -4 0 -13 6 -20 13 -15 15 -69 41 -130 63 -50 18 -226 26 -278 13z
m174 -234 c128 -18 229 -138 239 -284 4 -50 -16 -148 -34 -166 -6 -6 -28 11
-63 49 -50 54 -56 57 -78 45 -12 -6 -25 -15 -28 -18 -3 -4 -31 -28 -62 -54
-65 -55 -65 -58 -5 -129 l39 -48 -29 -2 c-70 -4 -91 -2 -133 11 -83 26 -145
81 -183 161 -16 34 -21 64 -21 125 1 95 7 125 38 173 51 80 106 117 198 136
35 7 68 12 73 10 6 -2 28 -6 49 -9z"/>
<path d="M3101 2674 c-57 -24 -57 -18 -56 -519 1 -425 2 -462 19 -487 10 -15
28 -30 39 -34 33 -11 566 -4 610 7 130 34 226 157 232 299 4 111 -35 205 -116
280 -38 35 -38 35 -25 74 16 46 13 149 -5 191 -7 17 -13 32 -14 35 -28 83
-138 149 -260 157 -161 9 -399 8 -424 -3z m433 -239 c11 -8 20 -31 23 -58 8
-67 -3 -72 -143 -72 l-119 0 -3 73 -3 72 113 0 c82 -1 118 -5 132 -15z m118
-359 c34 -15 54 -67 46 -120 -13 -91 -40 -101 -253 -101 l-140 0 -3 95 c-5
151 -20 138 170 136 90 -2 171 -6 180 -10z"/>
<path d="M62 2659 c-4 -10 -7 -186 -7 -391 1 -431 4 -451 83 -539 74 -83 174
-122 310 -121 98 1 179 22 239 63 77 53 94 76 138 184 5 11 9 195 11 408 1
315 -1 390 -12 401 -15 16 -206 18 -221 3 -4 -5 -8 -174 -9 -377 -1 -344 -2
-369 -20 -393 -25 -35 -61 -49 -130 -51 -43 -2 -64 3 -88 19 -55 37 -56 39
-56 431 0 277 -3 364 -12 371 -7 6 -60 10 -116 10 -91 0 -105 -2 -110 -18z"/>
<path d="M1002 2650 c-10 -32 -9 -991 1 -1007 10 -16 223 -18 232 -3 4 6 7
113 7 238 -1 178 2 223 11 209 7 -10 47 -67 90 -128 42 -60 77 -113 77 -118 0
-5 3 -11 8 -13 4 -1 27 -32 52 -68 24 -36 48 -66 52 -68 4 -2 8 -9 8 -16 0 -7
8 -20 18 -29 15 -14 41 -17 133 -17 125 0 146 7 126 44 -7 11 -15 23 -18 26
-4 4 -292 424 -311 456 -7 10 31 69 242 372 71 102 91 141 74 143 -5 1 -62 3
-127 4 l-119 2 -38 -51 c-20 -28 -67 -94 -103 -146 -36 -52 -70 -100 -75 -105
-5 -6 -17 -24 -28 -40 -19 -31 -21 -33 -53 -75 -19 -25 -20 -24 -20 183 0 137
-4 213 -11 222 -8 9 -40 13 -115 12 -103 -1 -105 -2 -113 -27z"/>
<path d="M3108 1541 c-120 -60 -84 -238 50 -246 48 -3 106 30 125 70 54 113
-64 232 -175 176z"/>
</g>
</svg>
